<svg xmlns="http://www.w3.org/2000/svg" width="48" height="48" fill="none" viewBox="0 0 48 48">
  <rect width="48" height="48" fill="rgba(255,255,255,0)" rx="10"/>
  <path fill="#fff" d="M10.792 45.077a.71.71 0 0 0 .398-.635.71.71 0 0 0-.398-.634l-5.754-2.856a.723.723 0 0 0-.698.034.708.708 0 0 0-.34.605v5.697a.72.72 0 0 0 1.038.64l5.754-2.851ZM5.436 42.74l3.43 1.697-3.43 1.698V42.74Zm19.66 1.697c0-.947-.38-1.85-1.054-2.519a3.616 3.616 0 0 0-5.084 0 3.55 3.55 0 0 0-1.053 2.52c0 .942.378 1.85 1.053 2.519a3.616 3.616 0 0 0 5.084 0 3.542 3.542 0 0 0 1.053-2.52Zm-5.755 0c0-.567.228-1.11.63-1.514a2.177 2.177 0 0 1 3.057 0 2.136 2.136 0 0 1 .001 3.029 2.177 2.177 0 0 1-3.057 0 2.137 2.137 0 0 1-.631-1.515ZM39 47.288v-5.702a.713.713 0 0 0-.718-.711h-5.754a.713.713 0 0 0-.718.711v5.702c0 .395.32.712.718.712h5.754a.713.713 0 0 0 .718-.712Zm-5.754-.711v-4.279h4.318v4.279h-4.318Zm1.44-11.404H22.219v4.038c0 .395-.32.712-.718.712a.713.713 0 0 1-.718-.712v-4.038H8.313v4.038c0 .395-.32.712-.718.712a.713.713 0 0 1-.718-.712v-4.75c0-.394.32-.711.718-.711h13.187v-4.038c0-.395.32-.712.718-.712.398 0 .718.317.718.712v4.038h13.187c.398 0 .718.317.718.712v4.75c0 .394-.32.711-.718.711a.713.713 0 0 1-.718-.712v-4.038ZM21.99 26.67c-1.714 0-3.248-.378-4.61-1.143a8.442 8.442 0 0 1-3.206-3.154C13.394 21.033 13 19.51 13 17.818c0-1.693.394-3.24 1.174-4.555a8.556 8.556 0 0 1 3.188-3.12C18.708 9.378 20.25 9 21.99 9c1.74 0 3.248.378 4.61 1.126a8.191 8.191 0 0 1 3.188 3.12c.772 1.332 1.157 2.853 1.157 4.572 0 1.719-.385 3.24-1.157 4.572a8.354 8.354 0 0 1-3.188 3.137c-1.354.765-2.896 1.143-4.61 1.143Zm0-2.742c1.105 0 2.1-.249 2.982-.747.883-.499 1.569-1.212 2.066-2.14.497-.928.745-1.994.745-3.215 0-1.22-.248-2.311-.745-3.214a5.356 5.356 0 0 0-2.066-2.105c-.883-.499-1.877-.748-2.982-.748-1.106 0-2.091.249-2.965.748-.866.498-1.56 1.203-2.083 2.105-.523.903-.78 1.977-.78 3.214 0 1.238.257 2.295.78 3.215.523.928 1.217 1.641 2.083 2.14.865.498 1.86.747 2.965.747Z"/>
</svg>
